# xmcd
#
# Track frame offsets:
#	150
#	19897
#	38988
#	57702
#	78710
#	92507
#	105496
#	126450
#	140001
#	160613
#	173487
#	195486
#	254111
#	284259
#
# Disc length: 4279 seconds
#
# Revision: 0
# Processed by: cddbd v1.5PL3 Copyright (c) Steve Scherf et al.
# Submitted via: dBpowerAMP V4.0
#
DISCID=c810b50e
DTITLE=Laura Doyle - No Easy Answers
DYEAR=1900
DGENRE=
TTITLE0=Awaken
TTITLE1=Your Love
TTITLE2=Chasing Bees
TTITLE3=Let You Go
TTITLE4=One Day
TTITLE5=1000 Questions
TTITLE6=Devotion
TTITLE7=Take Me There
TTITLE8=View Of The Child
TTITLE9=All The Pretty Horses
TTITLE10=Last Exit To Surrey
TTITLE11=Radiance
TTITLE12=I Love You So
TTITLE13=DATA
EXTD=
EXTT0=
EXTT1=
EXTT2=
EXTT3=
EXTT4=
EXTT5=
EXTT6=
EXTT7=
EXTT8=
EXTT9=
EXTT10=
EXTT11=
EXTT12=
EXTT13=
PLAYORDER=
